<?xml version="1.0" encoding="UTF-8" standalone="no"?>
<!-- Created with Inkscape (http://www.inkscape.org/) -->

<svg
   width="98.833374mm"
   height="98.367172mm"
   viewBox="0 0 98.833374 98.367172"
   version="1.1"
   id="svg1"
   xmlns="http://www.w3.org/2000/svg"
   xmlns:svg="http://www.w3.org/2000/svg">
  <defs
     id="defs1" />
  <g
     id="layer1"
     transform="translate(-55.966215,-89.317246)">
    <path
       id="path23"
       style="fill:currentColor;stroke-width:0.352778"
       d="m 103.99555,89.320428 c -5.297101,0.059 -10.600801,0.9416 -15.590801,2.6799 -7.7399,2.7799 -14.8057,7.4122 -20.2349,13.610502 -5.2176,5.8174 -8.9362,12.9859 -10.8412,20.56 -1.3406,5.7574 -1.6581,11.7683 -1.1007,17.6491 1.0653,11.6099 6.5162,22.73656 15.0781,30.65289 2.8293,2.51884 5.7574,4.87917 9.0382,6.7877 6.858,4.14867 14.9612,6.19812 22.934001,6.4239 2.7199,-0.0317 5.5103,0.10941 8.1985,-0.30334 5.6903,-0.61031 11.2463,-2.20497 16.3545,-4.78731 3.5243,-1.86619 6.8161,-4.17682 9.8041,-6.8156 4.064,-3.35492 7.4964,-7.50328 10.1704,-12.03648 3.6583,-5.89844 5.9338,-12.56966 6.6994,-19.46286 0.4339,-2.6776 0.2537,-5.3623 0.2749,-8.1422 -0.4939,-10.8444 -4.8296,-21.4843 -11.9275,-29.6793 -2.7305,-2.9704 -5.5564,-5.7575 -8.8795,-8.064602 -7.232,-5.0342 -15.8747,-8.297 -24.6941,-8.8579 -1.7524,-0.1623 -3.5177,-0.2341 -5.2834,-0.2144 z m 1.0464,6.2399 c 11.0349,-0.187 21.9604,4.0706 29.9967,11.623602 2.166,1.9579 4.0004,4.3179 5.736,6.6533 4.5438,6.3253 7.0558,13.854 7.6414,21.5904 0.067,2.1202 0.077,4.2438 0,6.364 -0.5151,6.3747 -2.3281,12.8166 -5.5878,18.3446 -1.6686,2.97392 -3.8033,5.75368 -6.0187,8.33954 -0.046,-6.19125 0.01,-12.38591 -0.018,-18.57714 -0.021,-1.2347 0.096,-2.512 -0.088,-3.7326 -0.3986,-0.8114 -1.6087,-0.6562 -2.3636,-0.7126 -1.7921,0.067 -3.648,-0.1519 -5.4224,0.074 -1.1501,0.1834 -1.0017,1.3582 -1.0687,2.2401 0.021,8.00457 0.014,16.00223 0.018,24.00323 -0.025,1.24531 0.088,2.51544 -0.039,3.75016 -2.032,1.51694 -4.5971,2.49761 -6.8972,3.55947 0.011,-7.77522 0.046,-15.55048 -0.01,-23.3257 -1.9156,-0.40923 -3.708,-0.23277 -5.6483,-0.28216 -0.9595,-0.0282 -1.8414,0.0635 -2.7657,0.32453 -0.1658,8.26558 0.025,16.5453 -0.078,24.81089 0.028,0.30691 -0.099,0.49754 -0.3773,0.57516 -2.3106,0.51152 -4.6216,0.49034 -6.9711,0.50798 -0.1376,-5.89845 0.039,-11.80393 -0.021,-17.7059 -0.011,-0.31045 -0.042,-0.61429 -0.1059,-0.91415 -0.3634,-0.69145 -1.009,-0.44442 -1.6687,-0.52555 -1.9403,0.0317 -3.937001,-0.11268 -5.863201,0.13073 -1.0266,0.508 -0.6981,1.44305 -0.7793,2.38849 0.025,5.28814 0.028,10.57972 0.06,15.87138 -3.3549,-0.74436 -6.8794,-1.67211 -9.9591,-3.21375 -5.9478,-2.80106 -11.2184,-7.1015 -15.2859,-12.25559 -4.3321,-5.31283 -7.1719,-11.81482 -8.5266,-18.51052 -0.6315,-2.7552 -0.6383,-5.5103 -0.864,-8.3431 0.021,-3.7818 0.3842,-7.6129 1.372,-11.2712 1.8732,-7.5388 5.9164,-14.4992 11.5114,-19.8861 7.8388,-7.986902 18.951,-12.167002 30.091701,-11.895402 z" />
    <path
       d="m 121.59435,108.66223 c 1.2629,0.501 1.4075,2.3354 1.4252,3.489 0,9.7543 -0.018,19.5262 0.014,29.2841 0.046,2.2154 -0.6738,4.3109 -2.0884,6.0184 -3.1362,3.9546 -9.1899,4.9777 -13.3104,1.9473 -2.099,-1.4041 -2.9245,-4.2086 -1.8873,-6.5158 0.8749,-2.1202 3.0656,-3.4114 5.1505,-4.1028 2.5012,-0.8573 5.1718,-0.7056 7.5812,0.3669 -0.099,-5.0095 0.028,-10.0224 -0.067,-15.0319 -0.01,-0.6985 -0.2152,-1.2947 -0.8114,-1.7074 -1.0054,-0.3387 -2.3001,0.095 -3.2879,0.3915 -5.3022,1.6722 -10.6256,3.2491 -15.920801,4.9319 -1.136,0.3669 -2.413,0.5538 -3.4643,1.1218 -0.7056,0.5045 -0.8326,1.5311 -0.8431,2.3319 -0.025,5.8843 0.032,11.7722 0.046,17.653 0.042,2.4271 -0.7973,4.9283 -2.5858,6.62162 -1.5523,1.44638 -3.4114,2.51177 -5.5245,2.86455 -1.905,0.20461 -3.87,0.0882 -5.648,-0.68792 -2.099,-0.92427 -3.6125,-2.97745 -3.877,-5.25285 0.011,-2.5224 1.6051,-4.8895 3.8417,-6.0149 2.8716,-1.5769 6.1771,-1.4322 9.1687,-0.261 0.028,-8.6219 -0.014,-17.2473 0.01,-25.8692 -0.01,-1.0866 0.3598,-2.2825 1.397,-2.8046 1.2065,-0.5115 2.4906,-0.8431 3.7253,-1.2876 7.874001,-2.413 15.677401,-5.0483 23.558501,-7.4366 1.1818,-0.2893 2.2331,-0.6138 3.4008,-0.049 z"
       fill="#currentColor"
       id="path11"
       style="stroke-width:0.352778" />
  </g>
</svg>
