<?xml version="1.0" encoding="UTF-8" standalone="no"?>
<svg
   version="1.1"
   viewBox="0 0 886 340"
   width="886.0pt"
   height="340.0pt"
   id="svg22"
   xmlns="http://www.w3.org/2000/svg"
   xmlns:svg="http://www.w3.org/2000/svg">
  <defs
     id="defs22" />
  <path
     id="path23"
     fill="currentColor"
     d="M 162.03369 21.282715 C 147.01822 21.450059 131.98436 23.951895 117.83936 28.879395 C 95.899355 36.759395 75.870469 49.890449 60.480469 67.460449 C 45.690469 83.950449 35.149512 104.27072 29.749512 125.74072 C 25.949512 142.06072 25.049395 159.09953 26.629395 175.76953 C 29.649395 208.67953 45.100605 240.21967 69.370605 262.65967 C 77.390605 269.79967 85.690723 276.49039 94.990723 281.90039 C 114.43072 293.66039 137.40049 299.46986 160.00049 300.10986 C 167.71049 300.01986 175.62023 300.42 183.24023 299.25 C 199.37023 297.52 215.11961 292.99969 229.59961 285.67969 C 239.58961 280.38969 248.92063 273.83986 257.39063 266.35986 C 268.91063 256.84986 278.64021 245.09072 286.22021 232.24072 C 296.59021 215.52072 303.04045 196.61031 305.21045 177.07031 C 306.44045 169.48031 305.92975 161.87023 305.98975 153.99023 C 304.58975 123.25023 292.29969 93.089863 272.17969 69.859863 C 264.43969 61.439863 256.42928 53.539512 247.00928 46.999512 C 226.50928 32.729512 202.01025 23.480625 177.01025 21.890625 C 172.04275 21.430625 167.03885 21.226934 162.03369 21.282715 z M 165 38.970703 C 196.28 38.440703 227.24979 50.509434 250.02979 71.919434 C 256.16979 77.469434 261.36955 84.159297 266.28955 90.779297 C 279.16955 108.7093 286.2902 130.05047 287.9502 151.98047 C 288.1402 157.99047 288.16994 164.01002 287.93994 170.02002 C 286.47994 188.09002 281.34059 206.35051 272.10059 222.02051 C 267.37059 230.45051 261.31955 238.33016 255.03955 245.66016 C 254.90955 228.11016 255.05975 210.55049 254.98975 193.00049 C 254.92975 189.50049 255.26072 185.87992 254.74072 182.41992 C 253.61072 180.11992 250.18053 180.5599 248.04053 180.3999 C 242.96053 180.5899 237.69992 179.96937 232.66992 180.60938 C 229.40992 181.12938 229.83062 184.45947 229.64063 186.95947 C 229.70063 209.64947 229.68043 232.32 229.69043 255 C 229.62043 258.53 229.94057 262.13037 229.58057 265.63037 C 223.82057 269.93037 216.5493 272.71021 210.0293 275.72021 C 210.0593 253.68021 210.16025 231.6401 210.01025 209.6001 C 204.58025 208.4401 199.49951 208.94029 193.99951 208.80029 C 191.27951 208.72029 188.77967 208.98021 186.15967 209.72021 C 185.68967 233.15021 186.22994 256.62029 185.93994 280.05029 C 186.01994 280.92029 185.66061 281.46066 184.87061 281.68066 C 178.32061 283.13066 171.76986 283.07061 165.10986 283.12061 C 164.71986 266.40061 165.2198 249.66066 165.0498 232.93066 C 165.0198 232.05066 164.92951 231.18936 164.74951 230.33936 C 163.71951 228.37936 161.88953 229.07961 160.01953 228.84961 C 154.51953 228.93961 148.85941 228.53021 143.39941 229.22021 C 140.48941 230.66021 141.42043 233.31072 141.19043 235.99072 C 141.26043 250.98072 141.27035 265.98047 141.36035 280.98047 C 131.85035 278.87047 121.85988 276.24061 113.12988 271.87061 C 96.269883 263.93061 81.329805 251.74037 69.799805 237.13037 C 57.519805 222.07037 49.469883 203.63967 45.629883 184.65967 C 43.839883 176.84967 43.820664 169.03977 43.180664 161.00977 C 43.240664 150.28977 44.269824 139.43006 47.069824 129.06006 C 52.379824 107.69006 63.840684 87.959941 79.700684 72.689941 C 101.92068 50.049941 133.42 38.200703 165 38.970703 z " />
  <path
     d="M 404.29 77.69 C 410.09 82.08 413.15 88.32 415.07 95.18 C 409.52 96.30 404.17 98.03 398.81 99.84 C 397.91 98.17 397.07 96.53 396.06 94.93 C 391.70 87.52 380.19 85.78 373.31 90.42 C 368.98 93.70 368.71 100.44 373.14 103.80 C 380.25 109.14 391.11 110.06 399.16 113.81 C 404.84 116.22 409.75 119.91 412.58 125.52 C 416.60 133.75 415.78 144.20 410.89 151.89 C 403.94 162.23 391.03 166.34 379.00 165.23 C 369.18 164.75 359.82 159.90 353.87 152.05 C 351.23 148.41 349.85 144.39 348.61 140.11 C 354.07 137.70 359.96 136.74 365.44 134.40 C 366.66 137.81 367.55 141.13 370.24 143.74 C 373.96 147.64 379.81 148.96 385.02 148.75 C 388.97 148.33 394.20 146.85 395.84 142.79 C 397.35 139.76 397.27 136.54 395.41 133.69 C 392.67 129.60 387.98 128.13 383.54 126.73 C 376.67 124.71 369.29 122.82 363.00 119.11 C 357.45 115.65 352.53 109.95 351.75 103.26 C 350.46 95.77 352.14 87.94 357.13 82.10 C 360.81 77.36 366.06 74.21 371.84 72.72 C 382.37 69.48 395.45 70.77 404.29 77.69 Z"
     fill="currentColor"
     id="path4" />
  <path
     id="path24"
     fill="currentColor"
     d="M 551.11377 70.932129 C 548.50078 70.878633 545.87273 71.00625 543.24023 71.25 C 532.81023 72.32 522.89971 77.059941 515.69971 84.689941 C 508.90971 91.489941 504.91025 100.90051 503.26025 110.27051 C 502.50025 118.80051 502.49 127.13979 505.5 135.27979 C 508.96 145.38979 516.69051 153.79973 525.77051 159.21973 C 536.13051 164.96973 548.41951 166.70045 559.99951 164.21045 C 573.38951 161.70045 585.47039 152.74959 591.65039 140.57959 C 599.58039 124.79959 598.23938 104.45031 587.85938 90.070313 C 581.94937 82.000313 573.63 75.840488 564 73.000488 C 559.78125 71.612988 555.46875 71.021289 551.11377 70.932129 z M 548.36279 88.807617 C 554.31967 88.70543 560.22041 90.259805 565.17041 93.799805 C 578.17041 102.5598 581.09928 122.91963 572.50928 135.61963 C 568.71928 141.22963 562.88021 145.55051 556.22021 147.02051 C 550.51021 148.69051 544.07057 147.65967 538.58057 145.65967 C 531.25057 142.39967 524.98004 135.62049 523.04004 127.75049 C 520.39004 118.99049 521.37061 108.84047 526.12061 100.98047 C 529.88061 95.400469 535.79992 90.930684 542.41992 89.450684 C 544.38492 89.060684 546.37717 88.84168 548.36279 88.807617 z " />
  <path
     id="path25"
     fill="currentColor"
     d="M 428.9707 72.959473 C 429.0807 102.98947 428.9498 133.02055 429.0498 163.06055 C 435.1898 163.02055 441.33047 163.0301 447.48047 163.1001 C 447.34047 153.0701 447.50055 143.03953 447.31055 133.01953 C 456.97055 132.75953 465.71 134.11004 474.75 130.79004 C 481.78 128.26004 487.39986 123.26953 490.60986 116.51953 C 494.01986 109.11953 494.45947 100.67988 492.20947 92.879883 C 489.82947 84.879883 483.26064 78.240723 475.41064 75.490723 C 471.15064 73.970723 466.54 72.91998 462 72.97998 C 450.99 72.97998 439.9807 73.039473 428.9707 72.959473 z M 456.1875 89.944336 C 460.11125 89.956311 464.03203 90.210059 467.51953 91.419434 C 471.31953 92.629434 473.61998 96.15043 474.22998 99.94043 C 474.85998 103.83043 474.58051 108.68975 471.77051 111.73975 C 469.32051 114.30975 465.63006 115.98951 462.06006 115.99951 C 457.16006 116.09951 452.2501 115.95977 447.3501 116.00977 C 447.4301 107.35977 447.42998 98.670508 447.22998 90.020508 C 450.08248 90.073008 453.1357 89.935022 456.1875 89.944336 z " />
  <path
     d="M 600.08 72.92 C 623.67 73.06 647.27 72.90 670.86 72.99 C 670.71 78.86 670.60 84.69 670.88 90.56 C 662.24 90.40 653.61 90.74 644.97 90.44 C 645.02 114.65 644.83 138.87 645.09 163.08 C 638.73 163.06 632.37 163.00 626.01 163.13 C 626.00 138.90 626.01 114.67 626.02 90.44 C 617.36 90.70 608.69 90.40 600.03 90.65 C 600.06 84.74 600.01 78.83 600.08 72.92 Z"
     fill="currentColor"
     id="path7" />
  <path
     d="M 683.33 72.94 C 689.54 72.99 695.76 73.00 701.97 72.93 C 702.04 102.95 701.84 132.97 702.08 162.99 C 695.82 163.08 689.56 163.01 683.30 163.07 C 683.58 155.06 683.42 147.02 683.45 139.00 C 683.37 116.99 683.56 94.95 683.33 72.94 Z"
     fill="currentColor"
     id="path8" />
  <path
     d="M 719.79 72.93 C 738.83 73.03 757.89 72.99 776.93 72.92 C 776.87 78.69 777.08 84.45 777.13 90.22 C 764.15 90.09 751.17 90.18 738.18 90.18 C 738.25 97.26 738.31 104.35 738.22 111.43 C 749.24 111.47 760.28 111.48 771.31 111.31 C 771.10 116.78 771.17 122.23 771.24 127.70 C 760.22 127.44 749.18 127.60 738.15 127.59 C 738.41 139.41 738.10 151.25 738.49 163.07 C 732.23 163.06 725.97 163.00 719.71 163.08 C 719.69 133.03 719.65 102.98 719.79 72.93 Z"
     fill="currentColor"
     id="path9" />
  <path
     d="M 782.86 72.97 C 789.90 72.94 796.93 73.00 803.97 72.94 C 810.41 85.65 817.22 98.19 823.42 111.02 C 829.12 98.01 836.37 85.68 842.63 72.93 C 849.68 72.90 856.74 72.98 863.79 72.91 C 858.96 82.26 853.55 91.28 848.60 100.58 C 844.09 108.47 840.02 116.57 835.45 124.44 C 834.33 126.55 832.99 128.44 833.03 130.91 C 832.88 141.62 833.12 152.35 832.96 163.07 C 826.65 163.03 820.33 163.04 814.02 163.05 C 814.02 153.37 814.01 143.69 814.04 134.01 C 813.94 132.30 814.21 130.16 813.34 128.64 C 802.84 110.29 792.83 91.63 782.86 72.97 Z"
     fill="currentColor"
     id="path10" />
  <path
     d="M 211.92 76.11 C 215.50 77.53 215.91 82.73 215.96 86.00 C 215.97 113.65 215.91 141.35 216.00 169.01 C 216.13 175.29 214.09 181.23 210.08 186.07 C 201.19 197.28 184.03 200.18 172.35 191.59 C 166.40 187.61 164.06 179.66 167.00 173.12 C 169.48 167.11 175.69 163.45 181.60 161.49 C 188.69 159.06 196.26 159.49 203.09 162.53 C 202.81 148.33 203.17 134.12 202.90 119.92 C 202.88 117.94 202.29 116.25 200.60 115.08 C 197.75 114.12 194.08 115.35 191.28 116.19 C 176.25 120.93 161.16 125.40 146.15 130.17 C 142.93 131.21 139.31 131.74 136.33 133.35 C 134.33 134.78 133.97 137.69 133.94 139.96 C 133.87 156.64 134.03 173.33 134.07 190.00 C 134.19 196.88 131.81 203.97 126.74 208.77 C 122.34 212.87 117.07 215.89 111.08 216.89 C 105.68 217.47 100.11 217.14 95.07 214.94 C 89.12 212.32 84.83 206.50 84.08 200.05 C 84.11 192.90 88.63 186.19 94.97 183.00 C 103.11 178.53 112.48 178.94 120.96 182.26 C 121.04 157.82 120.92 133.37 120.98 108.93 C 120.96 105.85 122.00 102.46 124.94 100.98 C 128.36 99.53 132.00 98.59 135.50 97.33 C 157.82 90.49 179.94 83.02 202.28 76.25 C 205.63 75.43 208.61 74.51 211.92 76.11 Z"
     fill="currentColor"
     id="path11" />
  <path
     id="path27"
     fill="currentColor"
     d="M 351.26953 198.95068 C 351.30953 228.63068 351.35947 258.32 351.20947 288 C 357.51947 287.96 363.82061 287.97 370.12061 288 C 370.03061 277.03 369.92992 266.05961 369.91992 255.09961 C 373.40992 255.01961 376.90063 255.02 380.39063 255 C 386.45062 266.08 392.98 276.9 399 288 C 406.13 287.95 413.25965 287.98949 420.38965 287.97949 C 412.99965 276.16949 406.06016 264.07979 398.66016 252.27979 C 402.99016 250.00979 407.0602 248.0799 410.2002 244.1499 C 418.8502 233.8999 417.64045 216.98029 408.71045 207.30029 C 402.80045 201.65029 394.07951 198.85973 385.99951 198.96973 C 374.41951 198.95973 362.84953 198.97068 351.26953 198.95068 z M 369.95068 215.85059 C 374.99068 216.01059 380.03959 215.9 385.07959 216 C 388.56959 216.04 392.54004 217.40945 394.79004 220.18945 C 399.17004 226.02945 397.06063 235.39021 390.14063 238.22021 C 384.16063 240.75021 376.37973 239.48033 369.96973 239.84033 C 369.91973 231.85033 369.98068 223.85059 369.95068 215.85059 z " />
  <path
     id="path26"
     fill="currentColor"
     d="M 477.42041 198.88037 C 470.72041 199.07037 463.97932 198.71004 457.29932 199.04004 C 455.51932 202.49004 454.56043 206.37 453.19043 210 C 443.37043 235.93 434.34041 262.2 424.17041 288 C 430.68041 287.98 437.19996 287.98 443.70996 288 C 446.07996 281.3 448.44037 274.58992 450.88037 267.91992 C 461.81037 268.20992 472.73943 268.01979 483.66943 268.02979 C 485.91943 274.68979 488.4002 281.28 490.4502 288 C 497.0602 287.95 503.68029 288.0107 510.30029 287.9707 C 501.19029 264.2207 492.65975 240.25041 483.73975 216.42041 C 481.62975 210.58041 479.37041 204.78037 477.42041 198.88037 z M 467.35986 218.32031 C 471.38986 229.64031 474.66984 241.21072 478.83984 252.49072 C 471.14984 252.34072 463.47932 252.68055 455.79932 252.31055 C 459.38932 242.02055 462.78002 231.65006 466.27002 221.31006 C 466.63002 220.31006 466.98986 219.31031 467.35986 218.32031 z " />
  <path
     d="M 519.43 198.89 C 525.48 199.12 531.59 198.70 537.62 199.14 C 538.65 200.16 539.45 201.49 540.25 202.69 C 550.78 218.81 561.99 234.45 572.47 250.60 C 573.91 252.81 575.44 254.95 577.04 257.04 C 577.00 237.67 577.04 218.30 576.85 198.93 C 582.89 198.94 588.94 198.99 594.99 198.88 C 595.08 228.59 594.95 258.30 595.06 288.00 C 589.00 287.96 582.93 287.96 576.87 287.98 C 563.68 268.40 549.67 249.29 537.07 229.33 C 536.94 236.87 536.98 244.43 537.35 251.97 C 537.73 263.98 537.76 275.99 537.91 287.99 C 531.75 287.99 525.58 287.95 519.42 288.00 C 519.44 258.30 519.57 228.59 519.43 198.89 Z"
     fill="currentColor"
     id="path16" />
  <path
     d="M 611.93 198.92 C 618.10 199.00 624.27 198.96 630.43 198.90 C 630.44 212.01 630.28 225.13 630.47 238.24 C 640.90 225.06 651.62 212.17 662.03 198.97 C 669.85 198.92 677.67 199.05 685.49 198.85 C 674.21 212.08 663.54 225.82 651.98 238.79 C 664.03 255.25 676.27 271.58 688.43 287.97 C 680.53 288.01 672.64 287.96 664.74 287.98 C 655.95 275.54 646.85 263.29 638.50 250.56 C 636.03 253.44 633.09 256.02 630.89 259.10 C 630.18 268.62 630.60 278.43 630.60 288.00 C 624.39 287.96 618.18 287.98 611.97 287.97 C 611.95 258.29 611.97 228.60 611.93 198.92 Z"
     fill="currentColor"
     id="path17" />
  <path
     d="M 698.00 198.85 C 717.32 199.04 736.65 198.92 755.98 198.93 C 755.98 204.63 755.99 210.32 755.98 216.02 C 742.94 215.94 729.90 216.05 716.87 215.94 C 716.95 222.28 716.91 228.63 716.94 234.97 C 728.17 234.88 739.38 235.07 750.61 234.89 C 750.50 240.27 750.51 245.66 750.64 251.04 C 739.41 250.95 728.18 250.99 716.96 251.02 C 716.91 257.94 716.97 264.85 716.94 271.76 C 729.96 271.63 742.98 271.77 756.00 271.66 C 755.97 277.10 756.00 282.54 755.97 287.98 C 736.65 287.97 717.32 287.98 698.00 287.97 C 698.04 258.27 697.99 228.56 698.00 198.85 Z"
     fill="currentColor"
     id="path18" />
  <path
     id="path28"
     fill="currentColor"
     d="M 787.72998 198.94629 C 781.96998 198.93504 776.20947 198.93979 770.45947 199.02979 C 770.50947 228.66979 770.60947 258.3407 770.45947 287.9707 C 776.70947 287.9707 782.95043 287.98975 789.19043 287.98975 C 788.99043 276.98975 789.09955 265.97949 789.03955 254.97949 C 792.61955 255.02949 796.19979 254.9802 799.77979 254.9502 C 806.10979 265.9102 812.33928 276.95 818.50928 288 C 825.71928 287.95 832.93967 287.97025 840.15967 288.01025 C 832.60967 276.12025 825.10016 264.17006 817.91016 252.06006 C 824.41016 249.39006 830.0599 245.47934 832.8999 238.81934 C 836.4799 230.34934 835.71066 219.16039 830.68066 211.40039 C 825.78066 202.94039 814.28049 199.09947 805.00049 198.95947 C 799.25049 198.98447 793.48998 198.95754 787.72998 198.94629 z M 788.9502 215.89014 C 793.9802 216.01014 799.0093 215.87975 804.0293 215.98975 C 807.5593 216.09975 810.96066 216.93988 813.43066 219.62988 C 816.25066 222.47988 816.30039 226.23047 815.90039 229.98047 C 815.19039 234.43047 811.47037 237.94939 807.13037 238.87939 C 801.34037 240.11939 794.8902 239.74932 788.9502 239.79932 C 788.9902 231.82932 788.9902 223.86014 788.9502 215.89014 z " />
</svg>
